# xmcd
#
# Track frame offsets: 
#        150
#        13127
#        30775
#        47074
#        59397
#        75449
#        95949
#        112067
#        125654
#        142507
#        161884
#        175504
#
# Disc length: 2479 seconds
#
# Revision: 3
# Processed by: cddbd v1.5.2PL0 Copyright (c) Steve Scherf et al.
# Submitted via: ExactAudioCopyFreeDBPlugin 1.0
#
DISCID=9509ad0c
DTITLE=Kelly Willis - Translated From Love
DYEAR=2007
DGENRE=Country
TTITLE0=Nobody Wants To Go To The Moon Anymore
TTITLE1=Sweet Little One
TTITLE2=Don't Know Why
TTITLE3=Teddy Boys
TTITLE4=Losing You
TTITLE5=Too Much To Lose
TTITLE6=The More That I'm Around You
TTITLE7=Sweet Sundown
TTITLE8=Success
TTITLE9=Stone's Throw Away
TTITLE10=I Must Be Lucky
TTITLE11=Translated From Love
EXTD=
EXTT0=
EXTT1=
EXTT2=
EXTT3=
EXTT4=
EXTT5=
EXTT6=
EXTT7=
EXTT8=
EXTT9=
EXTT10=
EXTT11=
PLAYORDER=
